<?xml version="1.0" encoding="UTF-8"?>
<svg width="24px" height="24px" viewBox="0 0 24 24" version="1.1" xmlns="http://www.w3.org/2000/svg">
    <path d="M23.498,6.186 C23.2219,5.2899 22.5129,4.58006 21.617,4.303 C19.7719,3.8 12,3.8 12,3.8 C12,3.8 4.22806,3.8 2.38306,4.303 C1.48716,4.58006 0.778158,5.2899 0.502058,6.186 C0,8.03 0,12 0,12 C0,12 0,15.97 0.502058,17.814 C0.778158,18.7101 1.48716,19.4199 2.38306,19.697 C4.22806,20.2 12,20.2 12,20.2 C12,20.2 19.7719,20.2 21.617,19.697 C22.5129,19.4199 23.2219,18.7101 23.498,17.814 C24,15.97 24,12 24,12 C24,12 24,8.03 23.498,6.186 Z M9.54594,15.569 L9.54594,8.431 L15.8159,12 L9.54594,15.569 Z" fill="currentColor"></path>
</svg> 